<?xml version="1.0" standalone="no"?>
<!DOCTYPE svg PUBLIC "-//W3C//DTD SVG 20010904//EN"
 "http://www.w3.org/TR/2001/REC-SVG-20010904/DTD/svg10.dtd">
<svg version="1.0" xmlns="http://www.w3.org/2000/svg"
 width="1560.000000pt" height="816.000000pt" viewBox="0 0 1560.000000 816.000000"
 preserveAspectRatio="xMidYMid meet">

<g transform="translate(0.000000,816.000000) scale(0.100000,-0.100000)"
fill="#000000" stroke="none">
<path d="M0 4080 l0 -4080 7800 0 7800 0 0 4080 0 4080 -7800 0 -7800 0 0
-4080z m7144 2606 c13 -48 4 -48 -44 -1 -27 27 -50 53 -50 57 0 17 89 -36 94
-56z m2194 -377 c52 -16 118 -39 148 -50 54 -20 54 -21 54 -63 0 -23 -10 -69
-23 -102 -13 -32 -52 -137 -87 -233 -71 -193 -71 -173 1 -223 l24 -17 -29 5
c-16 3 -38 10 -49 15 -25 14 -30 7 -58 -71 -12 -36 -26 -69 -30 -75 -4 -5 -53
-129 -108 -274 -56 -145 -106 -271 -111 -280 -6 -10 -10 256 -10 716 l0 732
93 -25 c50 -14 134 -38 185 -55z m-2093 -279 c20 -129 49 -316 65 -415 16 -99
43 -277 60 -395 16 -118 34 -245 40 -282 5 -37 10 -71 10 -76 0 -5 -48 -15
-107 -21 -60 -7 -117 -15 -128 -17 -17 -5 -17 -2 5 16 l25 22 -45 -7 c-25 -3
-62 -8 -82 -12 l-38 -6 0 46 c0 32 5 47 16 51 24 9 36 7 29 -4 -11 -17 77 0
110 22 l30 20 -40 -6 c-22 -3 -64 -8 -93 -12 l-52 -7 2 644 3 643 70 27 c49
19 72 23 77 15 3 -6 23 -117 43 -246z m2943 177 c49 -33 97 -78 134 -126 33
-40 57 -75 55 -77 -19 -19 -131 -45 -193 -46 -120 0 -114 -8 -114 147 0 73 3
141 6 150 8 21 20 16 112 -48z m-4086 -444 c40 11 92 -35 126 -113 l32 -71
-33 6 c-55 12 -111 40 -150 77 -31 30 -37 42 -37 77 0 39 1 41 21 30 12 -6 30
-8 41 -6z m226 -123 c28 -14 52 -28 52 -31 0 -4 -23 -13 -51 -19 -43 -10 -53
-10 -60 1 -11 17 -12 82 -1 77 4 -1 31 -14 60 -28z m1109 -922 c-3 -7 -5 -2
-5 12 0 14 2 19 5 13 2 -7 2 -19 0 -25z m10 -70 c-3 -8 -6 -5 -6 6 -1 11 2 17
5 13 3 -3 4 -12 1 -19z m962 -19 c72 -18 95 -21 98 -11 6 17 23 15 23 -3 0
-25 8 -27 605 -181 107 -28 160 -49 160 -63 0 -9 42 -26 123 -49 106 -31 123
-39 119 -54 -3 -10 -69 -123 -148 -252 l-143 -233 -85 -23 c-47 -12 -316 -82
-597 -155 l-512 -133 -108 -73 c-60 -41 -111 -77 -114 -80 -16 -19 -352 -250
-359 -247 -5 2 -155 147 -334 324 l-326 321 -283 120 c-156 67 -324 138 -374
158 l-91 37 -66 117 c-37 63 -63 119 -59 122 4 4 79 21 167 38 88 17 172 34
187 37 17 3 25 10 22 19 -4 8 5 15 23 19 41 8 142 25 188 31 22 3 60 10 85 15
25 6 140 26 255 45 116 19 217 38 225 41 31 11 236 46 272 45 55 0 71 -13 123
-98 27 -43 106 -167 177 -276 71 -109 134 -209 140 -222 6 -14 14 -25 18 -25
4 0 63 90 131 201 335 540 323 523 349 516 8 -2 57 -14 109 -28z m-2453 -633
c197 -80 690 -285 764 -319 45 -20 98 -68 295 -266 156 -157 229 -237 210
-229 -17 7 -230 105 -474 218 l-443 205 -246 213 c-267 231 -279 242 -270 242
3 0 77 -29 164 -64z m3609 -205 c-6 -4 -118 -73 -249 -151 l-240 -143 -680
-184 c-375 -101 -690 -186 -701 -189 -11 -3 71 59 183 139 202 144 204 145
305 172 56 14 388 102 737 195 349 92 639 168 645 169 6 1 6 -2 0 -8z m-2575
-296 c102 -102 183 -185 180 -185 -3 0 -88 83 -190 185 -102 102 -183 185
-180 185 3 0 88 -83 190 -185z m-85 -211 l540 -250 6 -160 c4 -87 7 -198 8
-246 1 -71 4 -88 16 -88 13 0 15 34 15 245 0 135 2 245 4 245 3 0 346 92 763
204 417 113 770 207 784 211 l26 6 -3 -73 c-2 -40 -13 -300 -24 -578 -24 -592
-25 -605 -51 -629 -11 -10 -259 -107 -552 -216 -810 -301 -917 -338 -933 -324
-11 9 -14 70 -16 310 -2 189 -7 300 -13 302 -6 1 -12 -103 -15 -290 -3 -160
-8 -295 -12 -298 -3 -4 -199 118 -435 271 -650 421 -628 406 -647 456 -12 34
-19 140 -30 488 -9 245 -19 500 -22 568 l-6 123 28 -13 c16 -7 272 -126 569
-264z m-604 -516 c0 -24 4 -119 8 -213 9 -219 14 -229 143 -312 51 -33 288
-187 527 -342 239 -155 447 -289 462 -297 67 -34 53 -38 1033 325 269 100 501
188 517 197 52 26 56 48 69 344 6 151 12 278 13 281 1 4 45 -4 97 -17 52 -13
124 -26 159 -28 45 -3 67 -9 73 -20 10 -18 76 -38 136 -41 26 -1 47 -8 55 -18
15 -21 89 -47 133 -47 18 0 37 -6 41 -14 4 -8 62 -37 128 -66 138 -58 278
-132 382 -199 l73 -47 -72 -89 c-97 -122 -339 -361 -473 -469 -437 -348 -943
-575 -1485 -665 -191 -31 -314 -41 -530 -41 -109 0 -244 5 -301 10 -917 91
-1728 548 -2281 1287 -46 61 -91 125 -101 141 l-17 30 117 50 c65 27 174 69
243 93 69 23 128 47 131 52 4 5 28 10 54 12 30 2 59 11 79 26 19 15 46 24 71
25 63 1 124 15 132 28 10 15 99 36 110 25 4 -4 60 3 123 16 158 32 150 33 151
-17z"/>
<path d="M6723 3050 c-40 -16 -46 -44 -39 -183 3 -71 11 -138 17 -149 13 -25
445 -238 482 -238 48 0 57 29 57 187 0 153 -7 181 -48 205 -35 20 -428 188
-439 187 -4 0 -18 -4 -30 -9z m240 -116 c111 -47 210 -94 221 -104 16 -15 19
-38 23 -152 7 -197 25 -193 -248 -60 -124 60 -228 116 -232 125 -9 23 -11 252
-3 266 4 6 14 11 22 11 9 0 106 -39 217 -86z"/>
<path d="M6760 2902 c0 -8 116 -62 133 -62 24 0 -1 21 -54 44 -64 28 -79 31
-79 18z"/>
<path d="M6760 2841 c0 -10 371 -173 379 -166 10 11 -19 27 -188 100 -176 76
-191 82 -191 66z"/>
<path d="M6760 2781 c0 -10 371 -173 378 -166 11 11 -19 27 -188 100 -179 77
-190 81 -190 66z"/>
<path d="M7465 2508 c-9 -24 -2 -93 10 -93 14 0 19 85 6 98 -7 7 -12 5 -16 -5z"/>
<path d="M7460 2304 c0 -59 24 -55 28 4 2 33 0 42 -12 42 -12 0 -16 -11 -16
-46z"/>
<path d="M8257 2220 c-125 -40 -127 -42 -127 -161 0 -103 11 -145 41 -154 24
-8 195 44 219 67 18 17 20 32 20 128 0 97 -2 112 -20 130 -25 25 -27 25 -133
-10z m118 -32 c3 -13 5 -61 3 -108 l-3 -85 -80 -27 c-130 -44 -125 -48 -125
81 l0 110 78 24 c100 32 120 33 127 5z"/>
<path d="M8298 2138 c-7 -21 3 -108 13 -108 5 0 9 20 9 44 0 25 5 48 10 51 6
4 8 11 5 16 -9 13 -32 11 -37 -3z"/>
<path d="M8223 2118 c-11 -16 -5 -118 8 -118 5 0 9 19 9 43 0 24 5 48 10 53 8
8 7 14 -3 23 -11 9 -17 8 -24 -1z"/>
<path d="M8271 2006 c-36 -12 -67 -28 -69 -36 -3 -9 1 -11 14 -6 11 4 45 14
77 23 33 10 57 22 57 30 0 16 -1 16 -79 -11z"/>
<path d="M7967 2121 c-48 -16 -94 -35 -102 -41 -12 -10 -15 -39 -15 -130 0
-104 2 -119 20 -135 19 -17 23 -17 117 11 54 16 106 37 115 46 15 15 18 36 18
131 0 98 -3 116 -18 130 -24 22 -31 21 -135 -12z m121 -125 l-3 -101 -86 -29
c-47 -16 -93 -27 -102 -23 -14 5 -17 22 -17 106 0 69 4 102 12 108 33 21 174
59 186 50 9 -7 12 -38 10 -111z"/>
<path d="M7948 2030 c-42 -43 -50 -71 -18 -63 11 3 23 9 26 14 12 20 31 8 26
-16 -7 -40 6 -75 28 -75 18 0 21 5 19 28 0 4 -7 6 -15 4 -10 -2 -14 8 -14 36
0 38 2 40 36 46 29 6 33 10 24 21 -10 12 -70 47 -74 44 -1 0 -18 -18 -38 -39z"/>
<path d="M7675 2020 c-49 -16 -95 -37 -102 -46 -9 -12 -13 -54 -13 -126 0 -95
2 -110 20 -128 11 -11 24 -20 28 -20 4 0 51 14 104 30 123 39 128 45 128 168
0 111 -17 153 -60 151 -8 0 -55 -13 -105 -29z m125 -114 c0 -71 -4 -106 -12
-113 -23 -17 -166 -56 -182 -50 -13 5 -16 24 -16 106 0 69 4 102 13 108 20 13
181 61 190 56 4 -2 7 -51 7 -107z"/>
<path d="M7695 1947 c-33 -11 -61 -21 -63 -23 -9 -7 20 -43 39 -49 19 -6 21
-13 16 -51 -5 -47 -2 -50 38 -32 28 12 33 28 10 28 -10 0 -15 10 -15 30 0 17
5 30 11 30 14 0 43 71 32 80 -4 4 -35 -2 -68 -13z"/>
</g>
</svg>
