<?xml version="1.0" standalone="no"?>
<!DOCTYPE svg PUBLIC "-//W3C//DTD SVG 20010904//EN"
 "http://www.w3.org/TR/2001/REC-SVG-20010904/DTD/svg10.dtd">
<svg version="1.0" xmlns="http://www.w3.org/2000/svg"
 width="1024.000000pt" height="768.000000pt" viewBox="0 0 1024.000000 768.000000"
 preserveAspectRatio="xMidYMid meet">

<g transform="translate(0.000000,768.000000) scale(0.100000,-0.100000)"
fill="#000000" stroke="none">
<path d="M1275 4617 c-3 -7 -4 -123 -3 -257 l3 -245 263 -3 262 -2 0 260 0
260 -260 0 c-201 0 -262 -3 -265 -13z m515 -247 l0 -250 -250 0 -250 0 0 250
0 250 250 0 250 0 0 -250z"/>
<path d="M1305 4590 c-4 -7 -3 -16 3 -22 14 -14 45 -2 40 15 -6 16 -34 21 -43
7z m25 -10 c0 -5 -4 -10 -10 -10 -5 0 -10 5 -10 10 0 6 5 10 10 10 6 0 10 -4
10 -10z"/>
<path d="M1730 4580 c0 -13 7 -20 20 -20 13 0 20 7 20 20 0 13 -7 20 -20 20
-13 0 -20 -7 -20 -20z m30 0 c0 -5 -4 -10 -10 -10 -5 0 -10 5 -10 10 0 6 5 10
10 10 6 0 10 -4 10 -10z"/>
<path d="M1500 4580 c-51 -9 -94 -35 -128 -75 -71 -87 -68 -197 10 -281 65
-70 166 -90 248 -49 14 7 38 11 54 8 36 -7 61 19 46 47 -7 13 -5 30 5 54 36
86 2 208 -73 260 -43 30 -111 45 -162 36z m115 -29 c104 -47 152 -175 102
-268 l-12 -23 -45 30 c-25 17 -48 30 -52 30 -16 0 -7 -39 17 -74 14 -20 25
-39 25 -42 0 -13 -74 -34 -117 -34 -58 0 -114 30 -157 83 -58 72 -46 198 26
264 56 53 142 66 213 34z m58 -286 c49 -36 59 -61 30 -72 -17 -7 -42 18 -76
77 -23 39 -13 38 46 -5z"/>
<path d="M1509 4426 c-13 -6 -28 -23 -33 -38 -23 -66 58 -113 109 -62 47 47
-16 130 -76 100z m69 -19 c21 -17 14 -65 -13 -83 -44 -29 -94 9 -81 62 10 39
57 49 94 21z"/>
<path d="M1512 4398 c-7 -7 -12 -17 -12 -22 0 -6 5 -3 11 7 5 9 18 17 29 17
19 0 36 -32 25 -50 -9 -14 -38 -13 -54 3 -11 10 -13 9 -9 -3 6 -21 52 -24 68
-5 29 35 -25 86 -58 53z"/>
<path d="M1304 4169 c-9 -15 11 -33 30 -26 9 4 13 13 10 22 -7 17 -30 20 -40
4z m31 -9 c3 -5 -1 -10 -9 -10 -9 0 -16 5 -16 10 0 6 4 10 9 10 6 0 13 -4 16
-10z"/>
<path d="M1737 4174 c-14 -15 -6 -34 14 -34 14 0 19 5 17 17 -3 18 -20 27 -31
17z m23 -14 c0 -5 -4 -10 -10 -10 -5 0 -10 5 -10 10 0 6 5 10 10 10 6 0 10 -4
10 -10z"/>
</g>
</svg>
